<svg width="25" height="25" viewBox="0 0 25 25" fill="none" xmlns="http://www.w3.org/2000/svg">
<path d="M11 4H5C4.73478 4 4.48043 4.10536 4.29289 4.29289C4.10536 4.48043 4 4.73478 4 5V11C4 11.2652 4.10536 11.5196 4.29289 11.7071C4.48043 11.8946 4.73478 12 5 12H11C11.2652 12 11.5196 11.8946 11.7071 11.7071C11.8946 11.5196 12 11.2652 12 11V5C12 4.73478 11.8946 4.48043 11.7071 4.29289C11.5196 4.10536 11.2652 4 11 4ZM10 10H6V6H10V10ZM21 4H15C14.7348 4 14.4804 4.10536 14.2929 4.29289C14.1054 4.48043 14 4.73478 14 5V11C14 11.2652 14.1054 11.5196 14.2929 11.7071C14.4804 11.8946 14.7348 12 15 12H21C21.2652 12 21.5196 11.8946 21.7071 11.7071C21.8946 11.5196 22 11.2652 22 11V5C22 4.73478 21.8946 4.48043 21.7071 4.29289C21.5196 4.10536 21.2652 4 21 4ZM20 10H16V6H20V10ZM11 14H5C4.73478 14 4.48043 14.1054 4.29289 14.2929C4.10536 14.4804 4 14.7348 4 15V21C4 21.2652 4.10536 21.5196 4.29289 21.7071C4.48043 21.8946 4.73478 22 5 22H11C11.2652 22 11.5196 21.8946 11.7071 21.7071C11.8946 21.5196 12 21.2652 12 21V15C12 14.7348 11.8946 14.4804 11.7071 14.2929C11.5196 14.1054 11.2652 14 11 14ZM10 20H6V16H10V20ZM21 16C21 16.1978 20.9414 16.3911 20.8315 16.5556C20.7216 16.72 20.5654 16.8482 20.3827 16.9239C20.2 16.9996 19.9989 17.0194 19.8049 16.9808C19.6109 16.9422 19.4327 16.847 19.2929 16.7071C19.153 16.5673 19.0578 16.3891 19.0192 16.1951C18.9806 16.0011 19.0004 15.8 19.0761 15.6173C19.1518 15.4346 19.28 15.2784 19.4444 15.1685C19.6089 15.0586 19.8022 15 20 15C20.2652 15 20.5196 15.1054 20.7071 15.2929C20.8946 15.4804 21 15.7348 21 16ZM17 16C17 16.1978 16.9414 16.3911 16.8315 16.5556C16.7216 16.72 16.5654 16.8482 16.3827 16.9239C16.2 16.9996 15.9989 17.0194 15.8049 16.9808C15.6109 16.9422 15.4327 16.847 15.2929 16.7071C15.153 16.5673 15.0578 16.3891 15.0192 16.1951C14.9806 16.0011 15.0004 15.8 15.0761 15.6173C15.1518 15.4346 15.28 15.2784 15.4444 15.1685C15.6089 15.0586 15.8022 15 16 15C16.2652 15 16.5196 15.1054 16.7071 15.2929C16.8946 15.4804 17 15.7348 17 16ZM17 20C17 20.1978 16.9414 20.3911 16.8315 20.5556C16.7216 20.72 16.5654 20.8482 16.3827 20.9239C16.2 20.9996 15.9989 21.0194 15.8049 20.9808C15.6109 20.9422 15.4327 20.847 15.2929 20.7071C15.153 20.5673 15.0578 20.3891 15.0192 20.1951C14.9806 20.0011 15.0004 19.8 15.0761 19.6173C15.1518 19.4346 15.28 19.2784 15.4444 19.1685C15.6089 19.0586 15.8022 19 16 19C16.2652 19 16.5196 19.1054 16.7071 19.2929C16.8946 19.4804 17 19.7348 17 20ZM21 20C21 20.1978 20.9414 20.3911 20.8315 20.5556C20.7216 20.72 20.5654 20.8482 20.3827 20.9239C20.2 20.9996 19.9989 21.0194 19.8049 20.9808C19.6109 20.9422 19.4327 20.847 19.2929 20.7071C19.153 20.5673 19.0578 20.3891 19.0192 20.1951C18.9806 20.0011 19.0004 19.8 19.0761 19.6173C19.1518 19.4346 19.28 19.2784 19.4444 19.1685C19.6089 19.0586 19.8022 19 20 19C20.2652 19 20.5196 19.1054 20.7071 19.2929C20.8946 19.4804 21 19.7348 21 20Z" fill="#D9D9D9"/>
</svg>
